<svg width="20" height="20" viewBox="0 0 20 20" fill="none" xmlns="http://www.w3.org/2000/svg">
<path d="M10 0C7.28333 0 6.94417 0.0125 5.8775 0.06C4.8125 0.11 4.0875 0.2775 3.45 0.525C2.7925 0.78 2.23417 1.1225 1.67833 1.67833C1.1225 2.23417 0.779167 2.79167 0.525 3.45C0.2775 4.0875 0.109167 4.8125 0.06 5.8775C0.01 6.94417 0 7.28333 0 10C0 12.7167 0.0125 13.0558 0.06 14.1225C0.11 15.1867 0.2775 15.9125 0.525 16.55C0.78 17.2067 1.1225 17.7658 1.67833 18.3217C2.23417 18.8767 2.79167 19.2208 3.45 19.475C4.08833 19.7217 4.81333 19.8908 5.8775 19.94C6.94417 19.99 7.28333 20 10 20C12.7167 20 13.0558 19.9875 14.1225 19.94C15.1867 19.89 15.9125 19.7217 16.55 19.475C17.2067 19.22 17.7658 18.8767 18.3217 18.3217C18.8767 17.7658 19.2208 17.2092 19.475 16.55C19.7217 15.9125 19.8908 15.1867 19.94 14.1225C19.99 13.0558 20 12.7167 20 10C20 7.28333 19.9875 6.94417 19.94 5.8775C19.89 4.81333 19.7217 4.08667 19.475 3.45C19.22 2.7925 18.8767 2.23417 18.3217 1.67833C17.7658 1.1225 17.2092 0.779167 16.55 0.525C15.9125 0.2775 15.1867 0.109167 14.1225 0.06C13.0558 0.01 12.7167 0 10 0ZM10 1.8C12.6692 1.8 12.9875 1.81333 14.0417 1.85917C15.0167 1.905 15.5458 2.06667 15.8975 2.205C16.3658 2.38583 16.6975 2.6025 17.0492 2.95167C17.3983 3.30167 17.615 3.63417 17.7958 4.1025C17.9325 4.45417 18.0958 4.98333 18.14 5.95833C18.1875 7.01333 18.1983 7.33 18.1983 10C18.1983 12.67 18.1858 12.9875 18.1367 14.0417C18.0858 15.0167 17.9233 15.5458 17.7858 15.8975C17.5992 16.3658 17.3867 16.6975 17.0367 17.0492C16.6875 17.3983 16.35 17.615 15.8867 17.7958C15.5367 17.9325 14.9992 18.0958 14.0242 18.14C12.9625 18.1875 12.65 18.1983 9.975 18.1983C7.29917 18.1983 6.98667 18.1858 5.92583 18.1367C4.95 18.0858 4.4125 17.9233 4.0625 17.7858C3.58833 17.5992 3.2625 17.3867 2.91333 17.0367C2.5625 16.6875 2.33833 16.35 2.16333 15.8867C2.02583 15.5367 1.86417 14.9992 1.81333 14.0242C1.77583 12.9742 1.7625 12.65 1.7625 9.9875C1.7625 7.32417 1.77583 6.99917 1.81333 5.93667C1.86417 4.96167 2.02583 4.425 2.16333 4.075C2.33833 3.6 2.5625 3.275 2.91333 2.92417C3.2625 2.575 3.58833 2.35 4.0625 2.17583C4.4125 2.0375 4.93833 1.875 5.91333 1.825C6.97583 1.7875 7.28833 1.775 9.9625 1.775L10 1.8ZM10 4.865C7.1625 4.865 4.865 7.165 4.865 10C4.865 12.8375 7.165 15.135 10 15.135C12.8375 15.135 15.135 12.835 15.135 10C15.135 7.1625 12.835 4.865 10 4.865ZM10 13.3333C8.15833 13.3333 6.66667 11.8417 6.66667 10C6.66667 8.15833 8.15833 6.66667 10 6.66667C11.8417 6.66667 13.3333 8.15833 13.3333 10C13.3333 11.8417 11.8417 13.3333 10 13.3333ZM16.5383 4.6625C16.5383 5.325 16 5.8625 15.3383 5.8625C14.6758 5.8625 14.1383 5.32417 14.1383 4.6625C14.1383 4.00083 14.6767 3.46333 15.3383 3.46333C15.9992 3.4625 16.5383 4.00083 16.5383 4.6625Z" fill="white"/>
</svg>
