<svg width="20" height="20" viewBox="0 0 20 20" fill="none" xmlns="http://www.w3.org/2000/svg">
<path d="M17.0392 17.0433H14.0775V12.4025C14.0775 11.2958 14.055 9.87167 12.5342 9.87167C10.99 9.87167 10.7542 11.0758 10.7542 12.3208V17.0433H7.7925V7.5H10.6375V8.80083H10.6758C11.0733 8.05083 12.04 7.25917 13.4842 7.25917C16.485 7.25917 17.04 9.23417 17.04 11.805V17.0433H17.0392ZM4.4475 6.19417C3.49417 6.19417 2.72833 5.4225 2.72833 4.47333C2.72833 3.525 3.495 2.75417 4.4475 2.75417C5.3975 2.75417 6.1675 3.525 6.1675 4.47333C6.1675 5.4225 5.39667 6.19417 4.4475 6.19417ZM5.9325 17.0433H2.9625V7.5H5.9325V17.0433ZM18.5208 0H1.47583C0.66 0 0 0.645 0 1.44083V18.5592C0 19.3558 0.66 20 1.47583 20H18.5183C19.3333 20 20 19.3558 20 18.5592V1.44083C20 0.645 19.3333 0 18.5183 0H18.5208Z" fill="white"/>
</svg>
