<svg width="60" height="60" viewBox="0 0 60 60" fill="none" xmlns="http://www.w3.org/2000/svg">
<path d="M27 59.82C27.3 59.82 27.54 59.88 27.84 59.88H32.16C44.34 59.88 54.18 50.04 54.18 37.86V33.54C54.18 21.36 44.34 11.52 32.16 11.52H27.84C27.54 11.52 27.3 11.58 27 11.58V59.82Z" fill="#FFAE2B"/>
<path d="M33.96 52.08H29.82C16.62 52.08 5.88 41.34 5.88 28.14V24C5.88 10.74 16.62 0 29.82 0H33.96C34.2 0 34.38 0 34.62 0L37.44 0.12V51.9L34.62 52.02C34.44 52.08 34.2 52.08 33.96 52.08ZM29.82 5.4C19.56 5.4 11.22 13.74 11.22 24V28.14C11.22 38.4 19.56 46.74 29.82 46.74H32.1V5.4H29.82Z" fill="#54493E"/>
</svg>
