<svg width="60" height="60" viewBox="0 0 60 60" fill="none" xmlns="http://www.w3.org/2000/svg">
<g clip-path="url(#clip0_1_150)">
<path d="M29.82 60.06L51.72 41.34L43.38 27.48H16.26L7.85999 41.34L29.82 60.06Z" fill="#54493E"/>
<path d="M29.4 42.78C17.58 42.78 8.03998 33.18 8.03998 21.42C8.03998 9.66 17.64 0 29.4 0C41.16 0 50.76 9.6 50.76 21.36C50.76 33.12 41.22 42.78 29.4 42.78ZM29.4 4.98C20.34 4.98 12.96 12.36 12.96 21.42C12.96 30.48 20.34 37.8 29.4 37.8C38.46 37.8 45.84 30.42 45.84 21.36C45.84 12.3 38.46 4.98 29.4 4.98Z" fill="#FFAE2B"/>
</g>
<defs>
<clipPath id="clip0_1_150">
<rect width="60" height="60" fill="white"/>
</clipPath>
</defs>
</svg>
