<svg width="20" height="18" viewBox="0 0 20 18" fill="none" xmlns="http://www.w3.org/2000/svg">
<path d="M19.9617 2.80742C19.2242 3.13158 18.4367 3.35242 17.6075 3.45325C18.4525 2.94408 19.1025 2.14158 19.41 1.18408C18.6175 1.64658 17.7392 1.98325 16.8042 2.17075C16.0575 1.37158 14.9933 0.871582 13.8117 0.871582C11.5475 0.871582 9.71167 2.70742 9.71167 4.96908C9.71167 5.29408 9.74917 5.60658 9.8175 5.90575C6.40917 5.74492 3.38833 4.10825 1.36667 1.63408C1.01083 2.23575 0.811667 2.93492 0.811667 3.69658C0.811667 5.12158 1.53667 6.37408 2.635 7.10991C1.9625 7.08825 1.33 6.90325 0.778333 6.59658V6.64741C0.778333 8.63494 2.18917 10.2924 4.06667 10.6699C3.7225 10.7624 3.35917 10.8124 2.98667 10.8124C2.725 10.8124 2.47417 10.7874 2.22333 10.7408C2.74917 12.3683 4.26083 13.5549 6.06 13.5883C4.66 14.6874 2.88583 15.3424 0.975 15.3424C0.65 15.3424 0.325833 15.3233 0 15.2866C1.82417 16.4483 3.97333 17.1274 6.2975 17.1274C13.8425 17.1274 17.9633 10.8808 17.9633 5.47241C17.9633 5.29825 17.9633 5.12241 17.9508 4.94741C18.7517 4.37325 19.4508 3.64742 20.0008 2.82408L19.9617 2.80742Z" fill="white"/>
</svg>
