<svg width="200" height="200" viewBox="0 0 200 200" fill="none" xmlns="http://www.w3.org/2000/svg">
<path d="M100 0C72.8333 0 69.4417 0.125 58.775 0.6C48.125 1.1 40.875 2.775 34.5 5.25C27.925 7.8 22.3417 11.225 16.7833 16.7833C11.225 22.3417 7.79167 27.9167 5.25 34.5C2.775 40.875 1.09167 48.125 0.6 58.775C0.1 69.4417 0 72.8333 0 100C0 127.167 0.125 130.558 0.6 141.225C1.1 151.867 2.775 159.125 5.25 165.5C7.8 172.067 11.225 177.658 16.7833 183.217C22.3417 188.767 27.9167 192.208 34.5 194.75C40.8833 197.217 48.1333 198.908 58.775 199.4C69.4417 199.9 72.8333 200 100 200C127.167 200 130.558 199.875 141.225 199.4C151.867 198.9 159.125 197.217 165.5 194.75C172.067 192.2 177.658 188.767 183.217 183.217C188.767 177.658 192.208 172.092 194.75 165.5C197.217 159.125 198.908 151.867 199.4 141.225C199.9 130.558 200 127.167 200 100C200 72.8333 199.875 69.4417 199.4 58.775C198.9 48.1333 197.217 40.8667 194.75 34.5C192.2 27.925 188.767 22.3417 183.217 16.7833C177.658 11.225 172.092 7.79167 165.5 5.25C159.125 2.775 151.867 1.09167 141.225 0.6C130.558 0.1 127.167 0 100 0ZM100 18C126.692 18 129.875 18.1333 140.417 18.5917C150.167 19.05 155.458 20.6667 158.975 22.05C163.658 23.8583 166.975 26.025 170.492 29.5167C173.983 33.0167 176.15 36.3417 177.958 41.025C179.325 44.5417 180.958 49.8333 181.4 59.5833C181.875 70.1333 181.983 73.3 181.983 100C181.983 126.7 181.858 129.875 181.367 140.417C180.858 150.167 179.233 155.458 177.858 158.975C175.992 163.658 173.867 166.975 170.367 170.492C166.875 173.983 163.5 176.15 158.867 177.958C155.367 179.325 149.992 180.958 140.242 181.4C129.625 181.875 126.5 181.983 99.75 181.983C72.9917 181.983 69.8667 181.858 59.2583 181.367C49.5 180.858 44.125 179.233 40.625 177.858C35.8833 175.992 32.625 173.867 29.1333 170.367C25.625 166.875 23.3833 163.5 21.6333 158.867C20.2583 155.367 18.6417 149.992 18.1333 140.242C17.7583 129.742 17.625 126.5 17.625 99.875C17.625 73.2417 17.7583 69.9917 18.1333 59.3667C18.6417 49.6167 20.2583 44.25 21.6333 40.75C23.3833 36 25.625 32.75 29.1333 29.2417C32.625 25.75 35.8833 23.5 40.625 21.7583C44.125 20.375 49.3833 18.75 59.1333 18.25C69.7583 17.875 72.8833 17.75 99.625 17.75L100 18ZM100 48.65C71.625 48.65 48.65 71.65 48.65 100C48.65 128.375 71.65 151.35 100 151.35C128.375 151.35 151.35 128.35 151.35 100C151.35 71.625 128.35 48.65 100 48.65ZM100 133.333C81.5833 133.333 66.6667 118.417 66.6667 100C66.6667 81.5833 81.5833 66.6667 100 66.6667C118.417 66.6667 133.333 81.5833 133.333 100C133.333 118.417 118.417 133.333 100 133.333ZM165.383 46.625C165.383 53.25 160 58.625 153.383 58.625C146.758 58.625 141.383 53.2417 141.383 46.625C141.383 40.0083 146.767 34.6333 153.383 34.6333C159.992 34.625 165.383 40.0083 165.383 46.625Z" fill="white" fill-opacity="0.19"/>
</svg>
